<mxfile host="Electron" modified="2023-04-28T09:18:45.212Z" agent="Mozilla/5.0 (Windows NT 10.0; Win64; x64) AppleWebKit/537.36 (KHTML, like Gecko) draw.io/21.1.2 Chrome/106.0.5249.199 Electron/21.4.3 Safari/537.36" etag="xgrStEmKqNxi0ptYQh_2" version="21.1.2" type="device">
  <diagram name="Page-1" id="aLbnn5nD4nmpR6Ko-jWS">
    <mxGraphModel dx="432" dy="955" grid="1" gridSize="10" guides="1" tooltips="1" connect="1" arrows="1" fold="1" page="1" pageScale="1" pageWidth="850" pageHeight="1100" math="0" shadow="0">
      <root>
        <mxCell id="0" />
        <mxCell id="1" parent="0" />
        <mxCell id="1y3fWj2mB8MClri4n722-1" value="Admin" style="shape=umlActor;verticalLabelPosition=bottom;verticalAlign=top;html=1;" parent="1" vertex="1">
          <mxGeometry x="50" y="490" width="30" height="60" as="geometry" />
        </mxCell>
        <mxCell id="1y3fWj2mB8MClri4n722-2" value="Admin/User" style="shape=umlLifeline;perimeter=lifelinePerimeter;whiteSpace=wrap;html=1;container=1;dropTarget=0;collapsible=0;recursiveResize=0;outlineConnect=0;portConstraint=eastwest;newEdgeStyle={&quot;edgeStyle&quot;:&quot;elbowEdgeStyle&quot;,&quot;elbow&quot;:&quot;vertical&quot;,&quot;curved&quot;:0,&quot;rounded&quot;:0};participant=umlActor;size=60;" parent="1" vertex="1">
          <mxGeometry x="47.5" y="10" width="35" height="480" as="geometry" />
        </mxCell>
        <mxCell id="1y3fWj2mB8MClri4n722-5" value="Destination&lt;br&gt;Form" style="shape=umlBoundary;whiteSpace=wrap;html=1;" parent="1" vertex="1">
          <mxGeometry x="240" y="500" width="80" height="60" as="geometry" />
        </mxCell>
        <mxCell id="1y3fWj2mB8MClri4n722-6" value="Destination&lt;br&gt;Form" style="shape=umlLifeline;perimeter=lifelinePerimeter;whiteSpace=wrap;html=1;container=1;dropTarget=0;collapsible=0;recursiveResize=0;outlineConnect=0;portConstraint=eastwest;newEdgeStyle={&quot;edgeStyle&quot;:&quot;elbowEdgeStyle&quot;,&quot;elbow&quot;:&quot;vertical&quot;,&quot;curved&quot;:0,&quot;rounded&quot;:0};participant=umlBoundary;size=60;" parent="1" vertex="1">
          <mxGeometry x="240" y="10" width="80" height="490" as="geometry" />
        </mxCell>
        <mxCell id="1y3fWj2mB8MClri4n722-8" value="" style="html=1;points=[];perimeter=orthogonalPerimeter;outlineConnect=0;targetShapes=umlLifeline;portConstraint=eastwest;newEdgeStyle={&quot;edgeStyle&quot;:&quot;elbowEdgeStyle&quot;,&quot;elbow&quot;:&quot;vertical&quot;,&quot;curved&quot;:0,&quot;rounded&quot;:0};" parent="1y3fWj2mB8MClri4n722-6" vertex="1">
          <mxGeometry x="35" y="110" width="10" height="40" as="geometry" />
        </mxCell>
        <mxCell id="1y3fWj2mB8MClri4n722-24" value="" style="html=1;points=[];perimeter=orthogonalPerimeter;outlineConnect=0;targetShapes=umlLifeline;portConstraint=eastwest;newEdgeStyle={&quot;edgeStyle&quot;:&quot;elbowEdgeStyle&quot;,&quot;elbow&quot;:&quot;vertical&quot;,&quot;curved&quot;:0,&quot;rounded&quot;:0};" parent="1y3fWj2mB8MClri4n722-6" vertex="1">
          <mxGeometry x="40" y="330" width="10" height="30" as="geometry" />
        </mxCell>
        <mxCell id="1y3fWj2mB8MClri4n722-26" value="" style="html=1;points=[];perimeter=orthogonalPerimeter;outlineConnect=0;targetShapes=umlLifeline;portConstraint=eastwest;newEdgeStyle={&quot;edgeStyle&quot;:&quot;elbowEdgeStyle&quot;,&quot;elbow&quot;:&quot;vertical&quot;,&quot;curved&quot;:0,&quot;rounded&quot;:0};" parent="1y3fWj2mB8MClri4n722-6" vertex="1">
          <mxGeometry x="40" y="230" width="10" height="30" as="geometry" />
        </mxCell>
        <mxCell id="1y3fWj2mB8MClri4n722-34" value="" style="html=1;points=[];perimeter=orthogonalPerimeter;outlineConnect=0;targetShapes=umlLifeline;portConstraint=eastwest;newEdgeStyle={&quot;edgeStyle&quot;:&quot;elbowEdgeStyle&quot;,&quot;elbow&quot;:&quot;vertical&quot;,&quot;curved&quot;:0,&quot;rounded&quot;:0};" parent="1y3fWj2mB8MClri4n722-6" vertex="1">
          <mxGeometry x="40" y="380" width="10" height="30" as="geometry" />
        </mxCell>
        <mxCell id="1y3fWj2mB8MClri4n722-7" value="chooseDestination" style="html=1;verticalAlign=bottom;endArrow=block;edgeStyle=elbowEdgeStyle;elbow=vertical;curved=0;rounded=0;" parent="1" target="1y3fWj2mB8MClri4n722-6" edge="1">
          <mxGeometry x="-0.18" width="80" relative="1" as="geometry">
            <mxPoint x="65" y="120" as="sourcePoint" />
            <mxPoint x="140" y="120" as="targetPoint" />
            <Array as="points">
              <mxPoint x="70" y="120" />
            </Array>
            <mxPoint as="offset" />
          </mxGeometry>
        </mxCell>
        <mxCell id="1y3fWj2mB8MClri4n722-22" value="confirmDelete" style="html=1;verticalAlign=bottom;endArrow=block;edgeStyle=elbowEdgeStyle;elbow=vertical;curved=0;rounded=0;" parent="1" source="1y3fWj2mB8MClri4n722-2" target="1y3fWj2mB8MClri4n722-6" edge="1">
          <mxGeometry x="-0.18" width="80" relative="1" as="geometry">
            <mxPoint x="60" y="280" as="sourcePoint" />
            <mxPoint x="140" y="280" as="targetPoint" />
            <Array as="points">
              <mxPoint x="120" y="240" />
              <mxPoint x="240" y="280" />
            </Array>
            <mxPoint as="offset" />
          </mxGeometry>
        </mxCell>
        <mxCell id="1y3fWj2mB8MClri4n722-27" value="deleteDestination" style="html=1;verticalAlign=bottom;endArrow=block;edgeStyle=elbowEdgeStyle;elbow=vertical;curved=0;rounded=0;" parent="1" edge="1" target="1y3fWj2mB8MClri4n722-23">
          <mxGeometry x="-0.1608" y="10" width="80" relative="1" as="geometry">
            <mxPoint x="280" y="290" as="sourcePoint" />
            <mxPoint x="280" y="290" as="targetPoint" />
            <Array as="points">
              <mxPoint x="470" y="290" />
            </Array>
            <mxPoint x="-1" as="offset" />
          </mxGeometry>
        </mxCell>
        <mxCell id="1y3fWj2mB8MClri4n722-28" value="setDescription" style="html=1;verticalAlign=bottom;endArrow=block;edgeStyle=elbowEdgeStyle;elbow=vertical;curved=0;rounded=0;" parent="1" edge="1">
          <mxGeometry x="-0.18" width="80" relative="1" as="geometry">
            <mxPoint x="65" y="340" as="sourcePoint" />
            <mxPoint x="280" y="340" as="targetPoint" />
            <Array as="points">
              <mxPoint x="120" y="340" />
              <mxPoint x="240" y="380" />
            </Array>
            <mxPoint as="offset" />
          </mxGeometry>
        </mxCell>
        <mxCell id="1y3fWj2mB8MClri4n722-41" value="Public&lt;br&gt;Destination Database" style="shape=umlLifeline;perimeter=lifelinePerimeter;whiteSpace=wrap;html=1;container=1;dropTarget=0;collapsible=0;recursiveResize=0;outlineConnect=0;portConstraint=eastwest;newEdgeStyle={&quot;edgeStyle&quot;:&quot;elbowEdgeStyle&quot;,&quot;elbow&quot;:&quot;vertical&quot;,&quot;curved&quot;:0,&quot;rounded&quot;:0};participant=umlEntity;size=60;" parent="1" vertex="1">
          <mxGeometry x="600" y="10" width="70" height="490" as="geometry" />
        </mxCell>
        <mxCell id="1y3fWj2mB8MClri4n722-23" value="" style="html=1;points=[];perimeter=orthogonalPerimeter;outlineConnect=0;targetShapes=umlLifeline;portConstraint=eastwest;newEdgeStyle={&quot;edgeStyle&quot;:&quot;elbowEdgeStyle&quot;,&quot;elbow&quot;:&quot;vertical&quot;,&quot;curved&quot;:0,&quot;rounded&quot;:0};" parent="1y3fWj2mB8MClri4n722-41" vertex="1">
          <mxGeometry x="37.5" y="280" width="10" height="30" as="geometry" />
        </mxCell>
        <mxCell id="1y3fWj2mB8MClri4n722-42" value="Public Destination Database" style="ellipse;shape=umlEntity;whiteSpace=wrap;html=1;" parent="1" vertex="1">
          <mxGeometry x="602.5" y="500" width="65" height="60" as="geometry" />
        </mxCell>
        <mxCell id="te_cUbVDTwEqInpnRbEG-1" value="getDestination" style="html=1;verticalAlign=bottom;endArrow=block;edgeStyle=elbowEdgeStyle;elbow=vertical;curved=0;rounded=0;" edge="1" parent="1" target="1y3fWj2mB8MClri4n722-41">
          <mxGeometry x="-0.18" width="80" relative="1" as="geometry">
            <mxPoint x="280" y="180" as="sourcePoint" />
            <mxPoint x="495" y="180" as="targetPoint" />
            <Array as="points">
              <mxPoint x="285" y="180" />
            </Array>
            <mxPoint as="offset" />
          </mxGeometry>
        </mxCell>
      </root>
    </mxGraphModel>
  </diagram>
</mxfile>
